<?xml version="1.0" standalone="no"?>
<!DOCTYPE svg PUBLIC "-//W3C//DTD SVG 20010904//EN"
 "http://www.w3.org/TR/2001/REC-SVG-20010904/DTD/svg10.dtd">
<svg version="1.0" xmlns="http://www.w3.org/2000/svg"
 width="1500.000000pt" height="1500.000000pt" viewBox="0 0 1500.000000 1500.000000"
 preserveAspectRatio="xMidYMid meet">
<metadata>
Created by potrace 1.11, written by Peter Selinger 2001-2013
</metadata>
<g transform="translate(0.000000,1500.000000) scale(0.100000,-0.100000)"
fill="#000000" stroke="none">
<path d="M11460 14333 c-38 -14 -2236 -996 -2242 -1001 -10 -9 60 -145 125
-245 309 -474 890 -825 1527 -923 176 -27 476 -25 643 5 241 42 448 122 623
240 97 65 234 185 234 205 0 24 -732 1651 -753 1675 -38 41 -109 61 -157 44z"/>
<path d="M10030 9395 l0 -305 820 0 820 0 0 65 c0 123 -65 260 -175 370 -67
67 -123 103 -223 143 l-67 27 -587 3 -588 3 0 -306z"/>
<path d="M7365 9291 c-135 -61 -176 -233 -83 -346 124 -150 363 -81 394 114
10 64 -13 128 -65 182 -67 69 -162 89 -246 50z"/>
<path d="M1510 8420 l0 -880 200 0 200 0 2 353 3 352 283 3 282 2 0 -355 0
-355 200 0 200 0 0 880 0 880 -200 0 -200 0 0 -350 0 -350 -285 0 -285 0 0
350 0 350 -200 0 -200 0 0 -880z"/>
<path d="M4490 8835 l0 -205 -80 0 -80 0 0 -140 0 -140 80 0 80 0 0 -247 c0
-268 9 -332 54 -421 31 -61 88 -115 151 -144 43 -20 66 -23 170 -23 99 0 131
4 185 23 36 12 71 26 78 30 10 7 2 43 -34 159 l-47 151 -33 -14 c-67 -28 -113
-13 -135 43 -5 13 -9 119 -9 234 l0 209 115 0 115 0 0 140 0 140 -115 0 -115
0 0 205 0 205 -190 0 -190 0 0 -205z"/>
<path d="M3575 8661 c-146 -23 -253 -79 -356 -188 -107 -113 -159 -237 -159
-385 0 -92 16 -160 57 -248 70 -147 248 -285 411 -319 76 -16 220 -14 310 5
126 25 226 80 310 168 40 42 72 83 72 91 0 9 -51 40 -131 80 l-130 66 -52 -46
c-59 -52 -123 -75 -207 -75 -132 0 -224 69 -245 183 l-7 37 398 2 399 3 -2 87
c-7 319 -208 519 -543 541 -41 3 -98 2 -125 -2z m190 -260 c22 -10 51 -30 63
-44 25 -26 54 -96 45 -109 -6 -11 -401 -10 -407 1 -9 14 16 77 42 106 54 62
176 84 257 46z"/>
<path d="M6470 8656 c-69 -15 -132 -47 -192 -98 l-48 -39 0 55 0 56 -190 0
-190 0 0 -545 0 -545 190 0 190 0 0 330 c0 368 0 368 72 437 100 96 243 82
313 -31 l30 -49 3 -344 3 -343 189 0 190 0 0 363 c0 199 -4 388 -10 420 -13
80 -50 157 -99 206 -99 99 -312 159 -451 127z"/>
<path d="M8335 8660 c-173 -24 -348 -142 -436 -295 -95 -164 -98 -376 -7 -547
63 -119 209 -239 343 -281 59 -19 92 -22 215 -21 131 0 153 3 224 28 93 32
147 62 210 117 43 38 112 126 104 134 -1 1 -62 32 -135 69 l-132 66 -38 -36
c-70 -65 -107 -79 -213 -79 -102 0 -150 16 -197 67 -27 29 -53 89 -53 123 l0
25 395 0 395 0 0 78 c0 91 -27 206 -66 284 -37 73 -137 169 -217 207 -115 55
-265 78 -392 61z m224 -273 c23 -15 47 -44 60 -69 39 -82 47 -78 -184 -78
-202 0 -205 0 -205 21 0 29 27 82 55 109 60 57 201 65 274 17z"/>
<path d="M13062 8660 c-135 -19 -224 -61 -294 -139 -97 -108 -103 -283 -13
-388 44 -52 142 -114 242 -154 43 -17 92 -37 110 -46 59 -28 61 -109 2 -133
-67 -28 -206 11 -307 87 -18 14 -35 23 -37 22 -1 -2 -36 -60 -76 -128 l-73
-124 39 -33 c43 -38 162 -87 249 -103 142 -26 342 -6 457 45 81 37 153 115
175 191 22 77 16 213 -13 268 -46 88 -150 158 -317 211 -139 44 -182 85 -142
139 13 18 26 20 113 19 84 0 108 -5 166 -28 37 -16 69 -27 71 -25 9 9 116 230
116 238 0 11 -98 47 -180 65 -88 20 -211 26 -288 16z"/>
<path d="M7260 8085 l0 -545 190 0 190 0 0 545 0 545 -190 0 -190 0 0 -545z"/>
<path d="M9170 8283 c0 -380 7 -440 57 -542 50 -102 138 -167 283 -207 93 -26
406 -27 500 -1 151 41 240 106 289 211 48 102 52 137 58 524 l5 362 -190 0
-190 0 -4 -322 c-4 -274 -7 -330 -22 -368 -34 -89 -85 -120 -198 -120 -97 0
-143 25 -178 95 -25 50 -25 51 -28 383 l-3 332 -190 0 -189 0 0 -347z"/>
<path d="M10714 8085 l291 -545 129 3 130 2 122 274 c68 150 125 275 127 277
2 2 60 -122 128 -276 l124 -280 130 2 130 3 287 535 c158 294 287 538 288 543
0 4 -97 6 -215 5 l-216 -3 -124 -275 c-68 -151 -128 -281 -132 -289 -6 -10
-49 76 -137 278 l-129 291 -132 0 -133 0 -128 -289 c-71 -159 -131 -288 -134
-286 -3 2 -63 132 -134 289 l-129 286 -217 0 -218 0 292 -545z"/>
<path d="M6104 6705 c-33 -17 -54 -51 -54 -88 0 -41 34 -78 104 -115 38 -21
74 -44 79 -53 14 -23 0 -66 -25 -80 -23 -12 -82 -14 -128 -4 -20 4 -29 2 -34
-11 -8 -22 6 -31 65 -39 124 -17 209 64 162 154 -13 25 -39 46 -93 76 -66 36
-75 44 -78 72 -3 25 2 35 23 49 23 15 36 16 85 8 53 -9 59 -8 63 8 7 24 -5 30
-77 35 -43 3 -70 -1 -92 -12z"/>
<path d="M7523 6714 c-23 -5 -23 -6 -23 -201 l0 -195 90 4 c86 3 91 4 122 35
26 27 33 41 33 74 0 36 -6 46 -38 74 -34 29 -36 34 -19 39 49 16 56 115 11
149 -27 19 -127 31 -176 21z m144 -57 c9 -8 16 -27 16 -42 0 -41 -33 -67 -92
-73 l-51 -5 0 65 c0 36 3 68 8 72 12 13 102 0 119 -17z m14 -186 c26 -31 24
-57 -6 -86 -20 -21 -34 -25 -80 -25 l-55 0 0 71 0 71 61 -4 c49 -4 66 -9 80
-27z"/>
<path d="M8036 6532 c-38 -103 -71 -193 -74 -200 -3 -10 3 -13 19 -10 19 2 28
15 43 56 l19 52 72 0 72 0 19 -52 c15 -40 25 -54 42 -56 12 -2 22 0 22 5 0 24
-144 393 -154 393 -6 0 -42 -85 -80 -188z m134 -59 c0 -2 -25 -3 -56 -3 -40 0
-54 3 -51 13 3 6 16 44 28 84 l23 72 28 -82 c15 -45 28 -83 28 -84z"/>
<path d="M8500 6520 l0 -200 26 0 26 0 -3 154 -4 153 19 -31 c49 -82 201 -286
210 -283 7 2 12 72 14 200 l2 197 -26 0 -25 0 3 -151 c2 -104 0 -145 -7 -134
-43 73 -210 295 -221 295 -12 0 -14 -34 -14 -200z"/>
<path d="M9403 6714 c-23 -5 -23 -6 -23 -201 l0 -195 90 4 c86 3 91 4 122 35
26 27 33 41 33 74 0 36 -6 46 -38 74 -34 29 -36 34 -19 39 49 16 56 115 11
149 -27 19 -127 31 -176 21z m144 -57 c9 -8 16 -27 16 -42 0 -41 -33 -67 -92
-73 l-51 -5 0 65 c0 36 3 68 8 72 12 13 102 0 119 -17z m14 -186 c26 -31 24
-57 -6 -86 -20 -21 -34 -25 -80 -25 l-55 0 0 71 0 71 61 -4 c49 -4 66 -9 80
-27z"/>
<path d="M10858 6713 l-28 -4 0 -195 0 -194 25 0 c25 0 25 1 25 90 l0 90 28
-6 c15 -4 30 -12 34 -18 89 -143 99 -156 123 -156 14 0 25 2 25 5 0 11 -94
151 -107 158 -11 7 -6 14 19 31 43 29 60 62 54 109 -9 78 -76 108 -198 90z
m134 -63 c42 -52 1 -120 -72 -120 l-40 0 0 76 0 77 47 -6 c32 -3 53 -12 65
-27z"/>
<path d="M11820 6520 c0 -195 1 -200 20 -200 20 0 21 4 18 155 -2 85 -2 155
-1 155 2 0 11 -15 20 -33 33 -62 198 -287 208 -283 6 1 11 79 13 199 l2 197
-26 0 -26 0 3 -149 4 -148 -33 49 c-64 98 -184 258 -193 258 -5 0 -9 -86 -9
-200z"/>
<path d="M12408 6704 c-35 -19 -48 -43 -48 -91 0 -46 32 -82 95 -108 55 -23
85 -53 85 -85 0 -54 -38 -67 -160 -57 -37 3 -40 -30 -3 -40 82 -22 174 0 198
48 35 68 8 122 -84 168 -72 37 -95 62 -87 96 10 41 64 53 157 33 8 -2 15 7 17
18 2 17 -4 23 -29 28 -52 10 -112 6 -141 -10z"/>
<path d="M5590 6515 l0 -195 105 0 c98 0 105 1 105 20 0 17 -8 19 -82 22 l-83
3 -3 68 -3 67 81 0 c73 0 80 2 80 20 0 17 -8 19 -77 22 l-78 3 -3 63 -3 62 86
0 c78 0 85 2 85 20 0 19 -7 20 -105 20 l-105 0 0 -195z"/>
<path d="M6500 6690 c0 -18 7 -20 60 -20 l60 0 0 -175 0 -175 25 0 25 0 0 175
0 175 60 0 c53 0 60 2 60 20 0 19 -7 20 -145 20 -138 0 -145 -1 -145 -20z"/>
<path d="M7020 6515 l0 -195 110 0 c103 0 110 1 110 20 0 18 -7 20 -85 20
l-85 0 0 70 0 70 75 0 c68 0 75 2 75 20 0 18 -7 20 -75 20 l-75 0 0 65 0 65
85 0 c78 0 85 2 85 20 0 19 -7 20 -110 20 l-110 0 0 -195z"/>
<path d="M9880 6515 l0 -195 110 0 c103 0 110 1 110 20 0 18 -7 20 -85 20
l-85 0 0 70 0 70 75 0 c68 0 75 2 75 20 0 18 -7 20 -75 20 l-75 0 0 65 0 65
80 0 c73 0 80 2 80 20 0 19 -7 20 -105 20 l-105 0 0 -195z"/>
<path d="M10360 6515 l0 -195 105 0 c98 0 105 1 105 20 0 18 -7 20 -85 20
l-85 0 0 70 0 69 77 3 c65 3 78 6 81 21 3 15 -6 17 -77 17 l-81 0 0 65 0 65
85 0 c78 0 85 2 85 20 0 19 -7 20 -105 20 l-105 0 0 -195z"/>
<path d="M11340 6515 l0 -195 110 0 c103 0 110 1 110 20 0 18 -7 20 -85 20
l-85 0 0 70 0 70 75 0 c68 0 75 2 75 20 0 18 -7 20 -75 20 l-75 0 0 65 0 65
80 0 c73 0 80 2 80 20 0 19 -7 20 -105 20 l-105 0 0 -195z"/>
<path d="M4940 4169 c-834 -47 -1604 -269 -2122 -612 -120 -79 -256 -184 -257
-199 -1 -4 179 -411 400 -905 243 -546 410 -909 426 -925 32 -34 84 -52 127
-45 18 3 993 434 2167 958 1174 523 2153 961 2177 971 55 25 55 26 -116 139
-673 445 -1730 679 -2802 618z"/>
</g>
</svg>
